<?xml version="1.0" encoding="UTF-8" standalone="no"?>
<!-- Created with Inkscape (http://www.inkscape.org/) -->

<svg
   xmlns:dc="http://purl.org/dc/elements/1.1/"
   xmlns:cc="http://creativecommons.org/ns#"
   xmlns:rdf="http://www.w3.org/1999/02/22-rdf-syntax-ns#"
   xmlns:svg="http://www.w3.org/2000/svg"
   xmlns="http://www.w3.org/2000/svg"
   xmlns:sodipodi="http://sodipodi.sourceforge.net/DTD/sodipodi-0.dtd"
   xmlns:inkscape="http://www.inkscape.org/namespaces/inkscape"
   width="64px"
   height="64px"
   id="svg3101"
   version="1.1"
   inkscape:version="0.48.5 r10040"
   sodipodi:docname="Nytt dokument 5">
  <defs
     id="defs3103" />
  <sodipodi:namedview
     id="base"
     pagecolor="#ffffff"
     bordercolor="#666666"
     borderopacity="1.0"
     inkscape:pageopacity="0.0"
     inkscape:pageshadow="2"
     inkscape:zoom="5.859375"
     inkscape:cx="32"
     inkscape:cy="32"
     inkscape:current-layer="layer1"
     showgrid="true"
     inkscape:document-units="px"
     inkscape:grid-bbox="true"
     inkscape:window-width="753"
     inkscape:window-height="581"
     inkscape:window-x="60"
     inkscape:window-y="60"
     inkscape:window-maximized="0" />
  <metadata
     id="metadata3106">
    <rdf:RDF>
      <cc:Work
         rdf:about="">
        <dc:format>image/svg+xml</dc:format>
        <dc:type
           rdf:resource="http://purl.org/dc/dcmitype/StillImage" />
        <dc:title></dc:title>
      </cc:Work>
    </rdf:RDF>
  </metadata>
  <g
     id="layer1"
     inkscape:label="Layer 1"
     inkscape:groupmode="layer">
    <path
       sodipodi:type="spiral"
       style="fill:#ff0000;stroke:#000000;stroke-width:1px;stroke-linecap:butt;stroke-linejoin:miter;stroke-opacity:1"
       id="path3111"
       sodipodi:cx="30.549334"
       sodipodi:cy="33.109333"
       sodipodi:expansion="1"
       sodipodi:revolution="3"
       sodipodi:radius="33.798897"
       sodipodi:argument="-17.942459"
       sodipodi:t0="0"
       d="m 30.549334,33.109333 c 1.043947,1.334886 -1.284353,2.065806 -2.218669,1.735109 -2.531937,-0.896167 -2.542611,-4.280958 -1.25155,-6.172446 2.309406,-3.383428 7.211079,-3.213395 10.126223,-0.767991 4.278093,3.588729 3.909577,10.182943 0.284433,14.080001 -4.831747,5.194167 -13.169885,4.61691 -18.033779,-0.199127 -6.120713,-6.06049 -5.330079,-16.164078 0.682686,-21.987556 7.282264,-7.053011 19.162369,-6.046641 25.941334,1.166245 7.988775,8.500136 6.765334,22.163215 -1.649804,29.895111 C 34.714598,59.78546 19.26444,58.344128 10.581319,48.725317 0.71500444,37.795811 2.3747612,20.555799 13.198241,10.92265 25.340549,0.11571261 44.372381,1.9942624 54.954685,14.023131 c 11.748362,13.354324 9.650757,34.179421 -3.58404,45.710222" />
    <path
       sodipodi:type="spiral"
       style="fill:none;stroke:#000000;stroke-width:1px;stroke-linecap:butt;stroke-linejoin:miter;stroke-opacity:1"
       id="path3113"
       sodipodi:cx="29.866667"
       sodipodi:cy="31.402666"
       sodipodi:expansion="1"
       sodipodi:revolution="3"
       sodipodi:radius="30.516422"
       sodipodi:argument="-17.913313"
       sodipodi:t0="0"
       d="m 29.866667,31.402666 c 0.907038,1.232201 -1.213482,1.830594 -2.047999,1.507557 -2.261491,-0.87541 -2.182064,-3.93046 -0.967114,-5.603555 2.173259,-2.992775 6.592539,-2.710349 9.159111,-0.426672 3.766546,3.351388 3.260455,9.292961 -0.113772,12.714667 -4.497313,4.560596 -12.007284,3.820231 -16.270222,-0.654214 -5.364474,-5.630632 -4.385084,-14.728304 1.194656,-19.825778 6.757812,-6.173725 17.453112,-4.952889 23.381335,1.735099 6.986205,7.881561 5.52255,20.180281 -2.275542,26.93689 C 32.923914,55.587432 19.018091,53.88011 11.434673,44.970676 2.8179128,34.84721 4.7694579,19.331792 14.7911,10.922674 26.033869,1.4889129 43.160645,3.6850645 52.394659,14.819543 62.646164,27.180925 60.205131,45.920356 47.957346,55.978657" />
    <path
       sodipodi:type="spiral"
       style="fill:none;stroke:#000000;stroke-width:1px;stroke-linecap:butt;stroke-linejoin:miter;stroke-opacity:1"
       id="path3115"
       sodipodi:cx="29.354666"
       sodipodi:cy="30.549334"
       sodipodi:expansion="1"
       sodipodi:revolution="3"
       sodipodi:radius="28.26273"
       sodipodi:argument="-17.927092"
       sodipodi:t0="0"
       d="m 29.354666,30.549334 c 0.855695,1.129518 -1.100398,1.710724 -1.877334,1.422222 -2.105447,-0.781824 -2.070878,-3.611998 -0.967111,-5.176889 1.97438,-2.799222 6.070504,-2.594071 8.476445,-0.512 3.530815,3.055523 3.137963,8.564236 0.05689,11.776 -4.106587,4.280776 -11.07072,3.690985 -15.075556,-0.398222 -5.039676,-5.145851 -4.248795,-13.583342 0.853333,-18.375111 6.179361,-5.803475 16.099432,-4.809387 21.674667,1.308444 C 49.06622,27.80343 47.867728,39.211464 40.732444,45.568 32.494476,52.906873 19.595058,51.503237 12.458666,43.349334 4.3498436,34.08435 5.9591044,19.691235 15.132443,11.776001 c 10.2911,-8.8796972 26.179552,-7.0644781 34.872889,3.128888 9.651252,11.316568 7.629836,28.701561 -3.583999,38.172444" />
  </g>
</svg>
